<?xml version="1.0" standalone="no"?>
<!DOCTYPE svg PUBLIC "-//W3C//DTD SVG 20010904//EN"
 "http://www.w3.org/TR/2001/REC-SVG-20010904/DTD/svg10.dtd">
<svg version="1.0" xmlns="http://www.w3.org/2000/svg"
 width="360.000000pt" height="360.000000pt" viewBox="0 0 360.000000 360.000000"
 preserveAspectRatio="xMidYMid meet">
<metadata>
Created by potrace 1.14, written by Peter Selinger 2001-2017
</metadata>
<g transform="translate(0.000000,360.000000) scale(0.100000,-0.100000)"
fill="#000000" stroke="none">
<path d="M734 3121 c-2 -2 -4 -135 -4 -295 l0 -291 377 0 378 0 2 -244 c1
-185 -2 -251 -13 -276 -7 -18 -11 -35 -8 -38 3 -3 1 -15 -6 -26 -8 -16 -8 -21
2 -21 9 0 9 -3 -2 -10 -13 -9 -13 -10 0 -10 9 0 11 -3 5 -8 -16 -11 -17 -42
-3 -60 11 -13 11 -14 0 -8 -11 6 -13 -2 -9 -38 2 -26 -1 -46 -6 -46 -5 0 -4
-6 2 -14 9 -11 9 -15 -1 -19 -10 -4 -10 -6 1 -6 11 -1 11 -4 1 -16 -9 -11 -9
-15 -1 -15 7 0 10 -4 6 -10 -3 -5 -6 -81 -7 -169 -1 -125 1 -163 13 -178 12
-16 12 -17 -2 -6 -14 11 -15 -28 -13 -405 1 -229 2 -420 3 -423 1 -8 -10 -8
340 -9 172 0 316 2 319 5 3 3 5 467 4 1031 l-2 1025 367 -2 c203 -1 374 -1
381 0 10 1 12 63 10 294 l-3 292 -1063 0 c-585 0 -1066 -2 -1068 -4z"/>
</g>
</svg>
